<?xml version="1.0" encoding="UTF-8"?>
<svg version="1.1" xmlns="http://www.w3.org/2000/svg" width="3439" height="3440">
<path d="M0 0 C2.51818801 0.49331259 5.03712088 0.98268577 7.55609131 1.47198486 C59.85219417 11.68458225 111.5907255 25.04125678 162.56634521 40.50274658 C163.42524353 40.76253296 164.28414185 41.02231934 165.16906738 41.28997803 C177.01730668 44.87863439 188.80880405 48.62763288 200.56634521 52.50274658 C201.50095581 52.8106311 202.43556641 53.11851563 203.39849854 53.43572998 C233.42706955 63.34650388 263.15262877 73.89168091 292.56634521 85.50274658 C293.35811157 85.81471985 294.14987793 86.12669312 294.96563721 86.44812012 C329.3155897 99.99568767 363.21884213 114.64437323 396.56634521 130.50274658 C397.6952417 131.03899658 398.82413818 131.57524658 399.98724365 132.12774658 C427.28337059 145.12809235 454.54097261 158.33982116 480.95599365 173.06085205 C483.75463085 174.60675098 486.5681772 176.1222494 489.38665771 177.63165283 C502.4851023 184.64715936 515.39012289 191.93449366 528.1786499 199.49981689 C530.5786574 200.91878933 532.98009291 202.33506765 535.38372803 203.74786377 C551.43466495 213.18311081 567.36713505 222.7426724 583.00384521 232.85528564 C585.59770228 234.5229064 588.2044459 236.16823544 590.81634521 237.80743408 C620.12637085 256.22758993 648.62843967 276.07182024 676.56634521 296.50274658 C677.36056885 297.08298584 678.15479248 297.6632251 678.9730835 298.26104736 C688.93816567 305.54935455 698.81304578 312.9335837 708.56634521 320.50274658 C710.16849371 321.7341418 711.77241609 322.96320157 713.37640381 324.19219971 C726.00018573 333.87308377 738.40563772 343.78252923 750.65960693 353.92803955 C753.20193596 356.02765827 755.7587943 358.1092117 758.31634521 360.19024658 C763.90113743 364.75425351 769.40024272 369.41628069 774.89593506 374.08673096 C776.57010363 375.50593261 778.24905997 376.9192543 779.92962646 378.33087158 C785.81255938 383.2770427 791.61398562 388.28756009 797.30462646 393.45587158 C799.37308397 395.32784348 801.46195435 397.17138048 803.56634521 399.00274658 C807.417451 402.35893114 811.21569336 405.77148851 815.00775146 409.19415283 C816.65886854 410.68393939 818.31234666 412.17111535 819.96868896 413.65509033 C825.66282409 418.75858583 831.30776754 423.91269865 836.91156006 429.11505127 C839.17907739 431.21950285 841.45304106 433.31647906 843.73358154 435.40679932 C856.6131246 447.2832975 868.94014695 459.72367158 881.31463623 472.1206665 C884.51160981 475.32338579 887.71312194 478.52152502 890.91594028 481.71839809 C893.41347349 484.21230276 895.90860197 486.70860243 898.40302849 489.20561409 C899.58271135 490.38595732 900.7631188 491.56557689 901.94430733 492.74441338 C907.5508184 498.34218744 913.12311975 503.92929809 918.25639343 509.97261047 C919.92661315 511.92357045 921.71945211 513.71953945 923.56634521 515.50274658 C926.69045506 518.58520163 929.5933561 521.7778443 932.45306396 525.10430908 C935.26371495 528.29421612 938.16513935 531.39530549 941.06634521 534.50274658 C945.65725613 539.42885459 950.18884947 544.384871 954.56634521 549.50274658 C955.44256843 550.52494961 956.31887867 551.54707804 957.19525146 552.56915283 C958.70962337 554.33575207 960.22345952 556.10279788 961.73577881 557.87115479 C965.00222581 561.68841641 968.28844054 565.48761697 971.58782959 569.27642822 C976.59972827 575.03379542 981.52874463 580.83836593 986.33197021 586.77227783 C988.37475201 589.26861433 990.45161085 591.72916148 992.54632568 594.18170166 C998.28405421 600.90048737 1003.78300034 607.77872942 1009.20452881 614.75421143 C1010.97409162 617.02628186 1012.75587261 619.28859054 1014.53826904 621.55059814 C1016.38299593 623.89287385 1018.22293079 626.23889073 1020.06243896 628.58526611 C1021.10331545 629.91238364 1022.1450385 631.23883747 1023.18743896 632.5647583 C1031.60276336 643.27583373 1039.78825892 654.13173586 1047.82513428 665.12921143 C1049.53904586 667.46553341 1051.26516769 669.79224526 1052.99603271 672.11602783 C1062.12761772 684.39093298 1070.89500096 696.89944806 1079.56634521 709.50274658 C1080.18090576 710.39300537 1080.79546631 711.28326416 1081.4286499 712.20050049 C1122.6278134 771.91825628 1159.71172118 834.27531889 1193.09564209 898.67901611 C1194.53789444 901.44812147 1195.99480086 904.20895756 1197.45697021 906.96759033 C1211.56034233 933.63281421 1224.30021397 960.9518961 1236.56634521 988.50274658 C1236.83944519 989.11577637 1237.11254517 989.72880615 1237.3939209 990.3604126 C1277.95273791 1081.52447145 1309.72669292 1176.16994918 1382.459198 1606.13464355 C1382.53309887 1607.76795602 1382.61190919 1609.40105122 1382.69473267 1611.03393555 C1383.84157283 1633.80672212 1383.75378429 1656.59589992 1383.75164795 1679.39141846 C1383.75156733 1683.92987103 1383.75841989 1688.46822125 1383.77215576 1693.00665283 C1383.86502123 1724.22467164 1383.27038193 1755.32887203 1381.56634521 1786.50274658 C1381.52740017 1787.21605133 1381.48845512 1787.92935608 1381.44832993 1788.66427612 C1380.9925713 1796.9090448 1380.44068943 1805.14416156 1379.81634521 1813.37774658 C1379.73331146 1814.49199005 1379.65027771 1815.60623352 1379.56472778 1816.75424194 C1371.86293435 1919.27728074 1355.15693918 2020.91932862 1316.56634521 2167.50274658 C1316.30528992 2168.40388184 1316.04423462 2169.30501709 1315.77526855 2170.23345947 C1299.0854903 2227.69785332 1279.32472654 2284.16242733 1256.56634521 2339.50274658 C1256.29304382 2340.16860779 1256.01974243 2340.83446899 1255.73815918 2341.52050781 C1247.72967846 2361.0234025 1239.32290085 2380.32337563 1230.56634521 2399.50274658 C1230.06199951 2400.61053467 1229.55765381 2401.71832275 1229.0380249 2402.85968018 C1211.59460639 2441.08974513 1192.931341 2478.74247685 1172.56634521 2515.50274658 C1172.03605713 2516.46293701 1171.50576904 2517.42312744 1170.95941162 2518.41241455 C1131.73498119 2589.34972176 1087.62192272 2657.86619094 1038.30950928 2722.22052002 C1036.08425075 2725.13392572 1033.88475159 2728.06528716 1031.69134521 2731.00274658 C1023.37409774 2742.11333377 1014.79969846 2752.96838636 1006.02044678 2763.71661377 C1004.10389816 2766.07078934 1002.20810602 2768.44112446 1000.31634521 2770.81524658 C989.70035339 2784.11293989 978.68674916 2797.06472304 967.59759521 2809.96759033 C965.58861179 2812.30645503 963.58926988 2814.65303465 961.59759521 2817.00665283 C955.9082639 2823.71534607 950.08266024 2830.25737608 944.06829834 2836.67681885 C941.370043 2839.5569379 938.70206475 2842.44677763 936.12884521 2845.44024658 C931.19641775 2851.15019956 925.97863631 2856.60700588 920.80853271 2862.10089111 C919.19327963 2863.83116766 917.59059965 2865.57321213 915.99603271 2867.3225708 C904.26403782 2880.13682485 891.88972031 2892.33156874 879.59661865 2904.60284424 C876.32549312 2907.86823114 873.0589373 2911.13814705 869.7936573 2914.40937805 C867.24913835 2916.95752563 864.70222414 2919.50326841 862.15459824 2922.04830933 C860.94913505 2923.2531118 859.74439651 2924.45863981 858.54043961 2925.66494751 C852.86817339 2931.34587505 847.21294773 2937.00224197 841.08755493 2942.20172119 C839.13896859 2943.86826347 837.34661776 2945.65889287 835.56634521 2947.50274658 C832.48050523 2950.63028711 829.28510222 2953.53656916 825.95306396 2956.39727783 C823.44635659 2958.6085958 821.00906628 2960.88237709 818.57244873 2963.17022705 C812.99087843 2968.41086374 807.32480897 2973.40750026 801.34368896 2978.19415283 C798.14189788 2980.85555724 795.10421475 2983.65758105 792.06634521 2986.50274658 C787.33657141 2990.926949 782.48618361 2995.110043 777.43353271 2999.16680908 C774.15056973 3001.84148465 770.95351473 3004.60461145 767.75384521 3007.37774658 C762.53596614 3011.88747472 757.19872729 3016.20053069 751.7489624 3020.42584229 C747.74556847 3023.54152226 743.85449746 3026.76319473 740.00384521 3030.06524658 C734.21067975 3035.02305319 728.23313324 3039.6919782 722.15618896 3044.29522705 C719.61524487 3046.22512716 717.09213231 3048.1780733 714.56634521 3050.12774658 C712.23438243 3051.92120025 709.90033378 3053.71193045 707.56634521 3055.50274658 C706.77631104 3056.10957275 705.98627686 3056.71639893 705.17230225 3057.34161377 C695.02240431 3065.13164615 684.84389323 3072.84261871 674.38421631 3080.21173096 C672.33747607 3081.66528486 670.3046107 3083.13697861 668.27337646 3084.61212158 C667.1338855 3085.43933716 667.1338855 3085.43933716 665.97137451 3086.28326416 C664.53301621 3087.32857284 663.09555443 3088.37511731 661.65936279 3089.42340088 C647.37066615 3099.7906943 632.62996603 3109.52875236 617.94134521 3119.31524658 C617.01370361 3119.9334729 616.08606201 3120.55169922 615.13031006 3121.18865967 C601.71129302 3130.12677024 588.26606749 3138.99876323 574.56634521 3147.50274658 C573.07022705 3148.43570557 573.07022705 3148.43570557 571.54388428 3149.38751221 C548.56576933 3163.70266176 525.19213105 3177.28838709 501.56634521 3190.50274658 C500.47789307 3191.11343994 499.38944092 3191.7241333 498.26800537 3192.35333252 C479.65714936 3202.78007188 460.82738309 3212.72378307 441.80053711 3222.36938477 C439.51035473 3223.53114946 437.22161371 3224.695718 434.93304443 3225.86065674 C414.38029519 3236.31283372 393.6947018 3246.34716394 372.61859131 3255.70098877 C369.23189099 3257.20430701 365.85228413 3258.72287874 362.47434998 3260.24577332 C283.44604881 3295.84368744 201.12843004 3324.62552914 117.56634521 3347.50274658 C116.67056763 3347.74919922 115.77479004 3347.99565186 114.85186768 3348.24957275 C19.51542451 3374.4731425 -78.36011757 3391.33230682 -240.74615479 3405.19024658 C-242.38279083 3405.28151825 -242.38279083 3405.28151825 -244.05249023 3405.37463379 C-274.18687405 3407.03182252 -304.3199617 3407.71525089 -334.49615479 3407.69024658 C-335.59419622 3407.68984627 -335.59419622 3407.68984627 -336.71442032 3407.68943787 C-445.86792122 3407.63995214 -554.72620745 3397.52238249 -891.21643066 3316.26525879 C-893.517044 3315.4740687 -895.81958081 3314.68870219 -898.12261963 3313.90460205 C-964.81632117 3291.17672705 -1029.90963096 3263.97339178 -1093.03942871 3232.68878174 C-1095.58645459 3231.42705367 -1098.13476245 3230.16793853 -1100.6831665 3228.90899658 C-1139.02276053 3209.95506239 -1139.02276053 3209.95506239 -1156.6963501 3200.02960205 C-1159.86582673 3198.26168314 -1163.05116667 3196.52360663 -1166.23834229 3194.78790283 C-1181.82839402 3186.28429784 -1197.18488161 3177.46205373 -1212.40924072 3168.31768799 C-1215.1761602 3166.65726827 -1217.94810662 3165.00573958 -1220.72271729 3163.35821533 C-1225.64244422 3160.43268372 -1230.54241455 3157.47562679 -1235.43365479 3154.50274658 C-1236.26107178 3154.0014624 -1237.08848877 3153.50017822 -1237.940979 3152.98370361 C-1258.00431475 3140.78030957 -1277.43197103 3127.59817092 -1296.93023682 3114.52008057 C-1300.64643593 3112.02815803 -1304.37041963 3109.5483427 -1308.09771729 3107.07305908 C-1313.13155868 3103.7193773 -1318.10913426 3100.29196806 -1323.05865479 3096.81524658 C-1323.91273926 3096.21567139 -1324.76682373 3095.61609619 -1325.64678955 3094.99835205 C-1339.77500292 3085.05912849 -1353.67046069 3074.8682944 -1367.38287354 3064.36212158 C-1371.85424778 3060.93781456 -1376.35621382 3057.55677634 -1380.87115479 3054.19024658 C-1392.39394079 3045.57618082 -1403.60276446 3036.5914359 -1414.75006104 3027.49884033 C-1417.68968886 3025.10278605 -1420.64895488 3022.73334748 -1423.62115479 3020.37774658 C-1428.00260591 3016.88581825 -1432.27570531 3013.27517315 -1436.54107666 3009.64337158 C-1440.0315581 3006.67502341 -1443.55921582 3003.76050227 -1447.12115479 3000.87774658 C-1451.52167053 2997.29874535 -1455.73198 2993.55482359 -1459.92193604 2989.73321533 C-1462.42824223 2987.50755307 -1465.00289872 2985.40753097 -1467.62115479 2983.31524658 C-1473.69116469 2978.40923005 -1479.32342954 2973.07271145 -1485.00006104 2967.72149658 C-1487.47759288 2965.38844859 -1489.98131321 2963.10090803 -1492.55865479 2960.87774658 C-1497.69010325 2956.4510464 -1502.63730678 2951.8223824 -1507.59918213 2947.20782471 C-1508.84043496 2946.05412365 -1510.08298596 2944.90181796 -1511.32672119 2943.75079346 C-1519.67961839 2936.01842123 -1527.8821142 2928.17041153 -1535.85479736 2920.04473877 C-1539.60025365 2916.2476651 -1543.46754202 2912.68309781 -1547.50543213 2909.19952393 C-1550.45440445 2906.6045179 -1553.22971801 2903.85220081 -1555.99615479 2901.06524658 C-1556.52144775 2900.5438208 -1557.04674072 2900.02239502 -1557.58795166 2899.48516846 C-1560.42364764 2896.6425477 -1563.12596327 2893.73247102 -1565.74224854 2890.68634033 C-1569.90047634 2885.88290002 -1574.40783933 2881.45706416 -1578.93365479 2877.00274658 C-1584.04861219 2871.96859419 -1589.0419957 2866.91902475 -1593.71783447 2861.47247314 C-1596.80788447 2857.92515907 -1600.06957948 2854.53846986 -1603.30865479 2851.12774658 C-1609.10620471 2844.99476271 -1614.84674297 2838.82910261 -1620.43365479 2832.50274658 C-1621.26123291 2831.5688208 -1621.26123291 2831.5688208 -1622.10552979 2830.61602783 C-1626.32049621 2825.82903025 -1630.46036481 2820.97745905 -1634.60650635 2816.13092041 C-1638.38442856 2811.71770522 -1642.18591303 2807.32556571 -1645.99615479 2802.94024658 C-1653.88839061 2793.84602218 -1661.73645748 2784.72400384 -1669.21490479 2775.28399658 C-1671.49412608 2772.42694454 -1673.80215958 2769.59514101 -1676.11456299 2766.76495361 C-1682.36243201 2759.11336247 -1688.44881828 2751.36092565 -1694.43365479 2743.50274658 C-1695.97445785 2741.50208119 -1697.51614974 2739.50210005 -1699.05865479 2737.50274658 C-1700.85203825 2735.17072979 -1702.64283863 2732.83673517 -1704.43365479 2730.50274658 C-1705.34389404 2729.31769531 -1705.34389404 2729.31769531 -1706.27252197 2728.10870361 C-1714.0658052 2717.95457003 -1721.77947676 2707.77162684 -1729.15142822 2697.30743408 C-1731.10788196 2694.55379623 -1733.10042357 2691.82665822 -1735.08843994 2689.09576416 C-1755.96378279 2660.37756423 -1775.6334081 2630.61668107 -1794.43365479 2600.50274658 C-1795.21361816 2599.2604126 -1795.21361816 2599.2604126 -1796.00933838 2597.99298096 C-1809.70717063 2576.16718016 -1822.79762942 2553.95896994 -1835.43365479 2531.50274658 C-1836.02001709 2530.46150635 -1836.60637939 2529.42026611 -1837.21051025 2528.34747314 C-1845.42893925 2513.72504572 -1853.40021169 2498.99986908 -1861.08990479 2484.09307861 C-1862.72454644 2480.94199796 -1864.39029703 2477.80818153 -1866.05865479 2474.67486572 C-1877.94635065 2452.30478344 -1889.05944052 2429.54637913 -1899.53387451 2406.48266602 C-1900.48000404 2404.40075747 -1901.4289116 2402.32012841 -1902.37799072 2400.23956299 C-1942.64755351 2311.85514278 -1975.68550913 2220.05417165 -2052.17651367 1808.09234619 C-2052.42079612 1804.682249 -2052.67620112 1801.27316178 -2052.93414307 1797.86407471 C-2058.43462397 1723.73138532 -2058.21375156 1647.69857935 -2052.66149902 1573.57165527 C-2052.4301856 1570.45601902 -2052.21143353 1567.33971034 -2051.9956665 1564.22296143 C-2047.1066041 1494.20094622 -2037.91401167 1424.38856907 -2024.43365479 1355.50274658 C-2024.23532043 1354.48809326 -2024.03698608 1353.47343994 -2023.8326416 1352.42803955 C-2008.86497396 1276.2136925 -1988.2894445 1201.17634791 -1963.18249512 1127.69647217 C-1962.43679595 1125.51194863 -1961.69450988 1123.32628804 -1960.95269775 1121.14044189 C-1946.9467385 1079.95294106 -1930.92826667 1039.53210296 -1913.40838623 999.71856689 C-1912.49623683 997.645012 -1911.58702444 995.57019819 -1910.67877197 993.49493408 C-1893.09173187 953.36302502 -1874.23358231 913.5056835 -1852.9229126 875.20782471 C-1850.68619558 871.14506658 -1848.51420848 867.04831247 -1846.33380127 862.95513916 C-1839.61992371 850.37042766 -1832.5936025 838.00633922 -1825.33453369 825.72930908 C-1823.27535327 822.2340447 -1821.23375291 818.72891251 -1819.19537354 815.22149658 C-1812.13714986 803.0880345 -1805.02382083 791.01202065 -1797.43804932 779.19781494 C-1795.51082729 776.19327724 -1793.59752927 773.18085658 -1791.70147705 770.15655518 C-1784.54003688 758.73377261 -1777.17870631 747.4590035 -1769.68365479 736.25274658 C-1769.1194986 735.40789703 -1768.55534241 734.56304749 -1767.97409058 733.69259644 C-1754.83707548 714.02471799 -1741.39600959 694.59531943 -1727.43365479 675.50274658 C-1726.85341553 674.70852295 -1726.27317627 673.91429932 -1725.675354 673.0960083 C-1718.38704682 663.13092613 -1711.00281767 653.25604602 -1703.43365479 643.50274658 C-1702.20187267 641.90009471 -1700.97242658 640.29566781 -1699.74298096 638.69122314 C-1691.14907676 627.4839778 -1682.41664119 616.40145948 -1673.43365479 605.50274658 C-1671.93294303 603.66999582 -1670.4329484 601.83665764 -1668.93365479 600.00274658 C-1668.1872876 599.09137939 -1667.44092041 598.18001221 -1666.67193604 597.24102783 C-1665.20757523 595.44954978 -1663.74649948 593.6553802 -1662.28912354 591.85821533 C-1656.6403115 584.90661421 -1650.837785 578.09877295 -1644.99078369 571.31427002 C-1643.43913543 569.50912262 -1641.89431894 567.69836099 -1640.35162354 565.88555908 C-1634.88930181 559.47239523 -1629.35432568 553.15344247 -1623.66021729 546.94415283 C-1621.74232271 544.84119826 -1619.85989434 542.71605502 -1617.99615479 540.56524658 C-1614.60486698 536.66327073 -1611.11141073 532.85767903 -1607.6104126 529.05450439 C-1604.79698656 525.9965987 -1602.01044973 522.91781089 -1599.24615479 519.81524658 C-1588.93022302 508.34495655 -1578.28614755 497.19797721 -1567.28131104 486.38726807 C-1563.33682078 482.49313913 -1559.60872966 478.48907483 -1555.99005127 474.29058838 C-1554.0728148 472.08824757 -1552.06452648 470.00079834 -1549.99615479 467.94024658 C-1549.31681885 467.25833252 -1548.63748291 466.57641846 -1547.93756104 465.87384033 C-1545.93292086 463.97553052 -1543.89948472 462.17661135 -1541.80474854 460.38165283 C-1536.58898224 455.84818685 -1531.78280967 450.92147327 -1526.93365479 446.00274658 C-1521.55459061 440.54650788 -1516.18925615 435.16908403 -1510.3682251 430.18341064 C-1506.82934837 427.10900033 -1503.45741588 423.85519054 -1500.05865479 420.62774658 C-1491.12482194 412.18836365 -1482.03785994 403.98767015 -1472.68170166 396.02008057 C-1468.97199546 392.85179368 -1465.33698629 389.61881157 -1461.74615479 386.31524658 C-1457.41838539 382.34707318 -1452.95487985 378.60782467 -1448.38677979 374.92071533 C-1445.00006697 372.14773222 -1441.68423736 369.30034949 -1438.37115479 366.44024658 C-1433.70725062 362.4219694 -1428.99658922 358.49014098 -1424.16412354 354.67462158 C-1422.04860714 352.99189323 -1419.94985654 351.29434895 -1417.85943604 349.58087158 C-1409.61769509 342.82790819 -1401.2639248 336.25748392 -1392.77740479 329.81524658 C-1389.09309882 327.01544006 -1385.44305952 324.17424338 -1381.800354 321.32061768 C-1371.82539325 313.50968674 -1361.67660591 305.95780201 -1351.43365479 298.50274658 C-1350.68615967 297.95763428 -1349.93866455 297.41252197 -1349.16851807 296.85089111 C-1330.43934 283.20470293 -1311.39699124 270.01907914 -1292.18365479 257.06524658 C-1291.2472113 256.43344482 -1290.31076782 255.80164307 -1289.34594727 255.1506958 C-1276.0510199 246.18913325 -1262.69398466 237.3991343 -1248.99420166 229.06622314 C-1246.35436847 227.45433415 -1243.72852448 225.82156627 -1241.10552979 224.18243408 C-1228.66852009 216.41515876 -1216.09768806 208.89342184 -1203.43365479 201.50274658 C-1202.40578857 200.90172119 -1201.37792236 200.3006958 -1200.31890869 199.68145752 C-1186.00677195 191.32454579 -1171.58017933 183.22762099 -1156.96563721 175.41217041 C-1154.2433497 173.94809099 -1151.53714258 172.45643293 -1148.83331299 170.95855713 C-1133.46234503 162.46470956 -1117.83465869 154.52392998 -1102.12115479 146.69024658 C-1100.7806507 146.02110626 -1099.440156 145.35194714 -1098.09967041 144.68276978 C-1079.11076643 135.20921233 -1060.0801478 125.90583889 -1040.61175537 117.4508667 C-1038.19893624 116.40057436 -1035.78928666 115.3432151 -1033.37994385 114.28497314 C-1008.91866964 103.54797169 -984.34844825 93.1437987 -959.43365479 83.50274658 C-958.30875641 83.06632843 -958.30875641 83.06632843 -957.16113281 82.62109375 C-928.20996517 71.39878074 -898.91064916 61.25208998 -869.43365479 51.50274658 C-868.52315369 51.20132751 -867.61265259 50.89990845 -866.67456055 50.58935547 C-762.60107966 16.20004492 -654.59249963 -7.15248316 -406.61749268 -31.40869141 C-404.54885372 -31.49258171 -402.48051345 -31.58168712 -400.41217041 -31.67254639 C-303.94101665 -35.77537057 -206.91473373 -30.48608105 0 0 Z " fill="#00B0F2" transform="translate(2055.4336547851563,32.49725341796875)"/>
<path d="M0 0 C2.33156405 0.0107232 4.66235537 0.00001996 6.99389648 -0.01269531 C22.72495019 -0.02795057 37.92012969 1.17290217 52.89819336 6.26074219 C53.5240332 6.46683105 54.14987305 6.67291992 54.79467773 6.88525391 C69.66594163 11.83124391 83.06409606 18.90590705 94.89819336 29.26074219 C95.63038086 29.84984375 96.36256836 30.43894531 97.11694336 31.04589844 C119.00614741 49.19698137 130.0220849 76.96243594 134.89819336 104.26074219 C135.04772461 105.05689941 135.19725586 105.85305664 135.35131836 106.67333984 C143.46390785 151.10899972 135.24125614 199.26004197 127.74975586 243.18798828 C126.38793026 251.19805547 125.14548584 259.21375549 124.02319336 267.26074219 C122.30465172 279.56731585 120.46203732 291.85236777 118.58569336 304.13574219 C118.43618225 305.11494629 118.28667114 306.09415039 118.13262939 307.10302734 C117.36300477 312.14236604 116.59249047 317.18156815 115.8215332 322.22070312 C114.48677965 330.94773549 113.15990926 339.67596628 111.83267212 348.40414429 C111.39665623 351.27084848 110.96034266 354.13750721 110.52392578 357.00415039 C109.2093129 365.63959878 107.89553934 374.27517122 106.58570862 382.91134644 C105.85705389 387.71539021 105.12768125 392.51932487 104.39819336 397.32324219 C104.2541507 398.27227417 104.11010803 399.22130615 103.96170044 400.19909668 C102.36770223 410.69582631 100.75897872 421.18999071 99.11303711 431.67871094 C98.89224487 433.08636719 98.89224487 433.08636719 98.66699219 434.52246094 C98.52011963 435.45880371 98.37324707 436.39514648 98.22192383 437.35986328 C97.92648947 439.24348579 97.63107923 441.12711208 97.33569336 443.01074219 C97.1903717 443.9370343 97.04505005 444.86332642 96.89532471 445.81768799 C94.59929104 460.47845638 92.46407441 475.15761871 90.40042114 489.85272217 C88.68789332 502.02657665 86.85024312 514.16304147 84.72192383 526.2722168 C83.11957606 535.49744618 81.81233665 544.75755834 80.50151062 554.02806091 C78.62506535 567.26618684 76.61148524 580.48228357 74.58569336 593.69824219 C74.19142657 596.27757856 73.79722188 598.85692442 73.40307617 601.4362793 C70.86967744 617.99912463 68.30016709 634.5561572 65.7124939 651.1105957 C63.78028061 663.48004612 61.90487118 675.8560071 60.10006714 688.24465942 C58.34973063 700.25717451 56.54209389 712.26032431 54.71069336 724.26074219 C54.56760742 725.19844452 54.42452148 726.13614685 54.27709961 727.1022644 C54.13143555 728.05682526 53.98577148 729.01138611 53.83569336 729.99487305 C53.52969586 732.00016155 53.22370648 734.0054513 52.91772461 736.01074219 C52.76034821 737.04199722 52.6029718 738.07325226 52.44082642 739.13575745 C50.46675466 752.07847529 48.5080062 765.02351575 46.5480957 777.96838379 C42.61814177 803.92495565 38.67824107 829.87999378 34.72485352 855.83300781 C33.86936221 861.44946655 33.01455856 867.06602983 32.15991211 872.68261719 C32.01493286 873.63539551 31.86995361 874.58817383 31.72058105 875.56982422 C31.27977484 878.46679531 30.83898155 881.36376836 30.39819336 884.26074219 C27.16331942 905.5211694 27.16331942 905.5211694 25.66268921 915.37243652 C22.06352755 939.00020914 18.4771149 962.6298965 14.89819336 986.26074219 C11.18375765 1010.78635868 7.46032106 1035.31058492 3.72485352 1059.83300781 C2.86936221 1065.44946655 2.01455856 1071.06602983 1.15991211 1076.68261719 C1.01493286 1077.63539551 0.86995361 1078.58817383 0.72058105 1079.56982422 C0.27977484 1082.46679531 -0.16101845 1085.36376836 -0.60180664 1088.26074219 C-3.83668058 1109.5211694 -3.83668058 1109.5211694 -5.33731079 1119.37243652 C-8.93647245 1143.00020914 -12.5228851 1166.6298965 -16.10180664 1190.26074219 C-19.81624235 1214.78635868 -23.53967894 1239.31058492 -27.27514648 1263.83300781 C-28.13063779 1269.44946655 -28.98544144 1275.06602983 -29.84008789 1280.68261719 C-29.98506714 1281.63539551 -30.13004639 1282.58817383 -30.27941895 1283.56982422 C-30.72022516 1286.46679531 -31.16101845 1289.36376836 -31.60180664 1292.26074219 C-34.83668058 1313.5211694 -34.83668058 1313.5211694 -36.33731079 1323.37243652 C-39.93647245 1347.00020914 -43.5228851 1370.6298965 -47.10180664 1394.26074219 C-50.81624235 1418.78635868 -54.53967894 1443.31058492 -58.27514648 1467.83300781 C-59.57176619 1476.34555618 -60.86684599 1484.85833892 -62.16210938 1493.37109375 C-62.5983405 1496.23796306 -63.03463309 1499.10482301 -63.47094727 1501.97167969 C-65.12146859 1512.81680288 -66.77114081 1523.66205473 -68.41999817 1534.50743103 C-69.59670531 1542.24635267 -70.77518343 1549.98500367 -71.95451355 1557.723526 C-72.73612848 1562.85391999 -73.51414611 1567.98483797 -74.28930664 1573.11621094 C-83.12155093 1631.42155123 -93.51229457 1694.91585734 -137.10180664 1738.26074219 C-137.91004883 1739.06898437 -138.71829102 1739.87722656 -139.55102539 1740.70996094 C-154.11409223 1754.50274987 -172.9874484 1764.4185794 -192.10180664 1770.26074219 C-193.36637695 1770.65326172 -193.36637695 1770.65326172 -194.65649414 1771.05371094 C-250.634497 1786.67363525 -307.82826406 1770.50233738 -358.10180664 1745.26074219 C-358.97111816 1744.8247168 -359.84042969 1744.38869141 -360.73608398 1743.93945312 C-385.17601225 1731.58668954 -408.18477183 1716.58579654 -430.92462158 1701.38031006 C-436.31400894 1697.7789237 -441.7226588 1694.20735363 -447.13696289 1690.64355469 C-448.01929092 1690.06274139 -448.90161896 1689.4819281 -449.8106842 1688.8835144 C-451.64652503 1687.67519529 -453.48241775 1686.46695502 -455.31835938 1685.25878906 C-468.93711971 1676.29566568 -482.54881153 1667.3230621 -496.10180664 1658.26074219 C-508.39865473 1650.0385109 -520.74615124 1641.89429125 -533.10180664 1633.76074219 C-546.03745531 1625.24539196 -558.95916488 1616.71116622 -571.83325195 1608.10302734 C-583.55400895 1600.26841949 -595.32613526 1592.51249616 -607.10180664 1584.76074219 C-620.03745531 1576.24539196 -632.95916488 1567.71116622 -645.83325195 1559.10302734 C-657.55400895 1551.26841949 -669.32613526 1543.51249616 -681.10180664 1535.76074219 C-694.03745531 1527.24539196 -706.95916488 1518.71116622 -719.83325195 1510.10302734 C-731.55400895 1502.26841949 -743.32613526 1494.51249616 -755.10180664 1486.76074219 C-768.03745531 1478.24539196 -780.95916488 1469.71116622 -793.83325195 1461.10302734 C-805.55400895 1453.26841949 -817.32613526 1445.51249616 -829.10180664 1437.76074219 C-842.03745531 1429.24539196 -854.95916488 1420.71116622 -867.83325195 1412.10302734 C-879.55400895 1404.26841949 -891.32613526 1396.51249616 -903.10180664 1388.76074219 C-916.03390403 1380.24772971 -928.95630798 1371.72191737 -941.82217407 1363.10906982 C-949.8698268 1357.7222259 -957.94936543 1352.38637299 -966.05102539 1347.08105469 C-968.0087526 1345.79726902 -969.9664346 1344.5134144 -971.92407227 1343.22949219 C-974.80844315 1341.33788262 -977.69383469 1339.44797205 -980.58349609 1337.56445312 C-1000.28213749 1324.72432681 -1019.37880668 1311.25274452 -1036.76586914 1295.37402344 C-1038.86351655 1293.47631901 -1041.00284446 1291.64724288 -1043.16430664 1289.82324219 C-1059.62947768 1275.37084757 -1073.59052681 1254.57508407 -1079.10180664 1233.26074219 C-1079.32481445 1232.42027344 -1079.54782227 1231.57980469 -1079.77758789 1230.71386719 C-1086.28591907 1201.49278841 -1074.47387558 1173.67012302 -1059.16552734 1149.33837891 C-1054.40617014 1141.98521243 -1049.04204996 1135.09831062 -1043.63305664 1128.21679688 C-1042.24387238 1126.4422203 -1040.87127879 1124.65685884 -1039.50805664 1122.86230469 C-1030.67461206 1111.24689866 -1021.45104931 1099.94549964 -1011.98266602 1088.84277344 C-1009.15506453 1085.52395359 -1006.39565589 1082.15899179 -1003.66430664 1078.76074219 C-999.28846419 1073.37932015 -994.60871849 1068.3207565 -989.87915039 1063.25292969 C-987.72102945 1060.93833957 -985.61006854 1058.59178472 -983.53930664 1056.19824219 C-979.31325776 1051.31730922 -974.92317442 1046.58697487 -970.55004883 1041.83837891 C-969.11664908 1040.27691074 -967.69021008 1038.70938058 -966.26586914 1037.13964844 C-961.42976542 1031.81791087 -956.5353065 1026.59397434 -951.36743164 1021.58886719 C-949.50208939 1019.67206721 -947.76980301 1017.72514779 -946.03222656 1015.69555664 C-941.86677125 1010.92248883 -937.43315291 1006.4481223 -932.94946289 1001.97558594 C-932.09049911 1001.11566544 -931.23153534 1000.25574493 -930.34654236 999.36976624 C-928.54003649 997.56258357 -926.73228202 995.75664827 -924.92333984 993.9519043 C-922.17243854 991.20635826 -919.42691443 988.45551673 -916.68188477 985.70410156 C-914.91723132 983.94010899 -913.15226767 982.17642668 -911.38696289 980.41308594 C-910.16941063 979.19249733 -910.16941063 979.19249733 -908.92726135 977.94725037 C-904.70256969 973.73968365 -900.41078005 969.68153828 -895.87327576 965.81202698 C-892.7958089 963.11707312 -889.96190513 960.18237429 -887.10180664 957.26074219 C-882.80938693 952.91809872 -878.48646091 948.71398434 -873.82446289 944.76464844 C-871.99750157 943.1696822 -870.30121377 941.49056377 -868.60180664 939.76074219 C-866.34382721 937.46748183 -864.0418416 935.29646191 -861.60180664 933.19824219 C-857.54245745 929.69962022 -853.63533515 926.05056302 -849.72680664 922.38574219 C-843.91415981 916.93875614 -838.04535272 911.56498247 -832.10180664 906.26074219 C-830.43448733 904.76146766 -828.76783098 903.26145558 -827.10180664 901.76074219 C-826.27938477 901.02082031 -825.45696289 900.28089844 -824.60961914 899.51855469 C-822.9158777 897.99365974 -821.22319495 896.46758817 -819.53149414 894.94042969 C-815.10286378 890.94518212 -810.65298885 886.97960608 -806.15258789 883.06542969 C-803.84091867 881.03116078 -801.56649234 878.95851909 -799.28930664 876.88574219 C-795.86951336 873.79437418 -792.3822214 870.83615187 -788.78930664 867.94824219 C-783.97515076 864.05753511 -779.4525633 859.93073753 -774.93847656 855.70288086 C-770.74887055 851.80105829 -766.3802595 848.18764041 -761.91430664 844.60449219 C-758.70330859 841.92866048 -755.65151527 839.11715943 -752.60180664 836.26074219 C-747.863142 831.82241544 -742.98061338 827.66931969 -737.91430664 823.60449219 C-734.70330859 820.92866048 -731.65151527 818.11715943 -728.60180664 815.26074219 C-724.7060243 811.61187563 -720.76846627 808.1037598 -716.60180664 804.76074219 C-711.19743882 800.42146875 -706.15225541 795.75677804 -701.08618164 791.03417969 C-696.50444576 786.76340845 -691.77425409 782.67681776 -686.99633789 778.62792969 C-680.16333935 772.82505085 -673.48343939 766.9032792 -666.94018555 760.77490234 C-663.35465802 757.4172211 -659.72473605 754.12971507 -656.00805664 750.91699219 C-649.41169611 745.18572812 -642.99050189 739.25382941 -636.55712891 733.34106445 C-633.4868492 730.52169987 -630.39708062 727.72616951 -627.28930664 724.94824219 C-621.13470556 719.4228655 -615.11091693 713.75862434 -609.07495117 708.10449219 C-607.11857811 706.27641382 -605.1561742 704.45505564 -603.19165039 702.63574219 C-596.57730771 696.50317257 -590.05820267 690.31844283 -583.76196289 683.85839844 C-581.70659841 681.85132446 -579.63865015 679.98189264 -577.46118164 678.11572266 C-573.02351029 674.24560882 -568.848148 670.15151388 -564.69165039 665.98339844 C-563.92051407 665.21321884 -563.14937775 664.44303925 -562.35487366 663.64952087 C-560.73600511 662.03132846 -559.11838113 660.41189007 -557.50195312 658.79125977 C-555.04611946 656.33006987 -552.58499299 653.8742641 -550.12329102 651.41894531 C-548.54159011 649.83658352 -546.96019947 648.25391152 -545.37915039 646.67089844 C-544.65291977 645.94669205 -543.92668915 645.22248566 -543.17845154 644.47633362 C-539.17144386 640.45113644 -535.33445015 636.33581724 -531.64112854 632.02024841 C-529.25987622 629.29838219 -526.68974865 626.78400706 -524.10180664 624.26074219 C-520.28082517 620.48615751 -516.61335816 616.66771457 -513.13305664 612.57324219 C-510.2466205 609.28714566 -507.22821735 606.12913008 -504.22680664 602.94824219 C-499.30782837 597.71993077 -494.64336203 592.40601288 -490.17211914 586.78808594 C-488.09801689 584.25611583 -485.90872487 581.89201518 -483.66430664 579.51074219 C-469.84088862 564.24236758 -461.18113796 546.05487453 -456.10180664 526.26074219 C-455.79629883 525.23787109 -455.79629883 525.23787109 -455.48461914 524.19433594 C-453.53155059 514.32934685 -454.46843032 503.23783373 -459.66430664 494.57324219 C-463.04647915 489.85795059 -467.02470791 486.98248583 -472.10180664 484.26074219 C-472.72829102 483.92042969 -473.35477539 483.58011719 -474.00024414 483.22949219 C-483.10173642 479.08197672 -493.53036213 480.73106421 -502.66430664 483.88183594 C-514.75735732 488.73279831 -525.37954796 495.13999048 -535.94311523 502.71728516 C-539.00467516 504.90629012 -542.0919612 507.05783306 -545.17797852 509.2121582 C-547.70296289 510.975234 -550.22489018 512.74261293 -552.74633789 514.51074219 C-565.51619563 523.45841018 -578.31501228 532.36468867 -591.17700195 541.17944336 C-597.37466134 545.43378233 -603.52662731 549.7527351 -609.68066406 554.06982422 C-614.80301245 557.66023238 -619.94109401 561.22572936 -625.10180664 564.76074219 C-630.98042177 568.78872334 -636.82924978 572.85742199 -642.66430664 576.94824219 C-656.50108852 586.64876665 -670.35126253 596.33107837 -684.28930664 605.88574219 C-690.94950259 610.45175722 -697.56765564 615.07625246 -704.1796875 619.71166992 C-717.80358179 629.26122543 -731.45314336 638.77402087 -745.17700195 648.17944336 C-751.37466134 652.43378233 -757.52662731 656.7527351 -763.68066406 661.06982422 C-768.80301245 664.66023238 -773.94109401 668.22572936 -779.10180664 671.76074219 C-784.98042177 675.78872334 -790.82924978 679.85742199 -796.66430664 683.94824219 C-811.1258665 694.08677847 -825.60843937 704.19511678 -840.17700195 714.17944336 C-846.37466134 718.43378233 -852.52662731 722.7527351 -858.68066406 727.06982422 C-863.80301245 730.66023238 -868.94109401 734.22572936 -874.10180664 737.76074219 C-879.98042177 741.78872334 -885.82924978 745.85742199 -891.66430664 749.94824219 C-905.50108852 759.64876665 -919.35126253 769.33107837 -933.28930664 778.88574219 C-939.94950259 783.45175722 -946.56765564 788.07625246 -953.1796875 792.71166992 C-966.80358179 802.26122543 -980.45314336 811.77402087 -994.17700195 821.17944336 C-1000.37466134 825.43378233 -1006.52662731 829.7527351 -1012.68066406 834.06982422 C-1017.80301245 837.66023238 -1022.94109401 841.22572936 -1028.10180664 844.76074219 C-1033.98042177 848.78872334 -1039.82924978 852.85742199 -1045.66430664 856.94824219 C-1059.50108852 866.64876665 -1073.35126253 876.33107837 -1087.28930664 885.88574219 C-1093.94950259 890.45175722 -1100.56765564 895.07625246 -1107.1796875 899.71166992 C-1120.80358179 909.26122543 -1134.45314336 918.77402087 -1148.17700195 928.17944336 C-1154.37466134 932.43378233 -1160.52662731 936.7527351 -1166.68066406 941.06982422 C-1172.43896569 945.10599115 -1178.22221369 949.10337872 -1184.02368164 953.07714844 C-1189.40745091 956.77041416 -1194.75697088 960.51141001 -1200.10180664 964.26074219 C-1208.04846499 969.83342015 -1216.02337714 975.36195193 -1224.03295898 980.84375 C-1226.25149828 982.36326877 -1228.46773932 983.88610379 -1230.68383789 985.40917969 C-1252.8413786 1000.6248729 -1275.19508457 1015.5353722 -1298.34399414 1029.21191406 C-1300.16917606 1030.30093927 -1301.9801927 1031.41087361 -1303.78930664 1032.52636719 C-1312.01738046 1037.58087809 -1320.40584888 1042.05861655 -1329.09008789 1046.27685547 C-1331.75584164 1047.5806161 -1334.40324284 1048.91947813 -1337.05151367 1050.25830078 C-1340.39292723 1051.94337129 -1343.74623607 1053.60408156 -1347.10180664 1055.26074219 C-1347.75697266 1055.5854248 -1348.41213867 1055.91010742 -1349.0871582 1056.24462891 C-1366.47512307 1064.81069595 -1384.50056297 1071.82178205 -1403.10180664 1077.26074219 C-1403.92551758 1077.52113281 -1404.74922852 1077.78152344 -1405.59790039 1078.04980469 C-1408.08774648 1078.83516342 -1410.58767455 1079.55651304 -1413.10180664 1080.26074219 C-1413.73908691 1080.4410498 -1414.37636719 1080.62135742 -1415.03295898 1080.80712891 C-1429.86320158 1084.94014733 -1444.85134715 1087.26648866 -1460.10180664 1089.26074219 C-1461.29604248 1089.43798828 -1462.49027832 1089.61523438 -1463.72070312 1089.79785156 C-1469.19466406 1090.47351341 -1474.67525424 1090.44256412 -1480.18383789 1090.46386719 C-1481.35146164 1090.46956726 -1482.51908539 1090.47526733 -1483.72209167 1090.48114014 C-1486.19736841 1090.49056525 -1488.67265755 1090.4971142 -1491.14794922 1090.50097656 C-1494.83658659 1090.51054067 -1498.52463132 1090.54152804 -1502.21313477 1090.57324219 C-1561.20703369 1090.83528787 -1620.17570705 1075.18095248 -1676.22802734 1057.93847656 C-1683.40536033 1055.74287256 -1690.61731934 1053.69660659 -1697.85180664 1051.69824219 C-1705.91077046 1049.47161774 -1713.89798081 1047.10755385 -1721.85180664 1044.53222656 C-1728.47077709 1042.41032872 -1735.15136285 1040.54449604 -1741.85180664 1038.69824219 C-1749.78720534 1036.51025124 -1757.59075147 1034.16268465 -1765.37524414 1031.48730469 C-1769.71185022 1030.05995216 -1774.08207943 1028.8073837 -1778.47680664 1027.57324219 C-1787.28400286 1025.09533595 -1796.05314081 1022.50257561 -1804.81011963 1019.85360718 C-1806.22845509 1019.42459856 -1807.64702554 1018.99636584 -1809.06585693 1018.56900024 C-1816.41018521 1016.35550769 -1823.72383547 1014.07968981 -1830.99243164 1011.62792969 C-1836.61735645 1009.73513179 -1842.25431052 1008.01606553 -1847.97680664 1006.44824219 C-1858.86043047 1003.39042896 -1869.62056124 999.9956454 -1880.36499023 996.48242188 C-1883.04921474 995.6048667 -1885.73434476 994.73049443 -1888.4206543 993.859375 C-1931.33906716 979.92603794 -1977.18095667 963.5944237 -1999.40185547 920.92700195 C-2009.13478829 901.41341355 -2012.72606417 880.09343208 -2005.77758789 859.12011719 C-2001.81567315 848.21912634 -1995.19834368 840.26487938 -1987.10180664 832.26074219 C-1986.04026367 831.18373047 -1986.04026367 831.18373047 -1984.95727539 830.08496094 C-1978.18680612 823.62518242 -1970.1500452 818.94157211 -1962.10180664 814.26074219 C-1961.18359131 813.72610352 -1961.18359131 813.72610352 -1960.24682617 813.18066406 C-1946.99355857 805.59090908 -1932.87838347 799.61537061 -1918.96528625 793.35995483 C-1911.15113553 789.84206291 -1903.3703654 786.25256967 -1895.58911133 782.66265869 C-1879.8198196 775.39038482 -1863.9948866 768.25909417 -1848.10180664 761.26074219 C-1846.04833166 760.35339278 -1843.99494586 759.4458415 -1841.94165039 758.53808594 C-1827.57235475 752.1928168 -1813.16411141 745.93828015 -1798.74632263 739.70423889 C-1794.63700694 737.92681636 -1790.53063684 736.14276036 -1786.42602539 734.35449219 C-1767.26383344 726.01374395 -1748.03636929 717.82817786 -1728.80102539 709.65771484 C-1726.56920002 708.70911268 -1724.33742858 707.76038361 -1722.10571289 706.81152344 C-1721.01630402 706.34858887 -1719.92689514 705.8856543 -1718.80447388 705.40869141 C-1713.42892918 703.12005093 -1708.0622978 700.81336351 -1702.71069336 698.46923828 C-1701.17347878 697.79624947 -1701.17347878 697.79624947 -1699.60520935 697.10966492 C-1697.70019605 696.27370711 -1695.79647212 695.43480096 -1693.89442444 694.59211731 C-1689.45897701 692.64437724 -1685.01889077 690.83909247 -1680.45410156 689.21484375 C-1675.79748827 687.55353119 -1671.37527087 685.62352636 -1666.93774414 683.45214844 C-1658.62766104 679.46805226 -1650.2094668 675.79687318 -1641.72680664 672.19824219 C-1640.20542596 671.54997143 -1638.68418933 670.90136253 -1637.16308594 670.25244141 C-1634.02421303 668.91362467 -1630.88474241 667.57622406 -1627.74487305 666.23974609 C-1623.31242932 664.35193678 -1618.88409229 662.45467198 -1614.45727539 660.55371094 C-1613.40288521 660.10097054 -1613.40288521 660.10097054 -1612.32719421 659.63908386 C-1610.90547607 659.02860705 -1609.48375874 658.41812833 -1608.06204224 657.80764771 C-1595.14929763 652.26491213 -1582.22315145 646.75403996 -1569.28930664 641.26074219 C-1568.47945312 640.91675385 -1567.66959961 640.5727655 -1566.83520508 640.21835327 C-1565.1600169 639.50681347 -1563.48482559 638.79528103 -1561.80963135 638.08375549 C-1516.07784676 618.67274556 -1516.07784676 618.67274556 -1470.44238281 599.03686523 C-1435.27444929 583.79295988 -1399.99025203 568.81952723 -1364.71697998 553.8215332 C-1330.0388911 539.09635078 -1330.0388911 539.09635078 -1295.44287109 524.17993164 C-1264.78739979 510.85287568 -1234.01933738 497.78369778 -1203.25039673 484.72125244 C-1162.78897825 467.56617274 -1162.78897825 467.56617274 -1122.42919922 450.17407227 C-1088.81941834 435.56348479 -1055.07737657 421.25584212 -1021.35083008 406.91748047 C-981.84220505 390.15486681 -981.84220505 390.15486681 -942.42749023 373.17333984 C-905.64233353 357.1822661 -868.70278042 341.54519618 -831.78961182 325.85266113 C-806.9864231 315.30771278 -782.184232 304.76261502 -757.45605469 294.04272461 C-728.49458169 281.48859066 -699.45262083 269.12239419 -670.3984375 256.78469849 C-627.37474886 238.5173607 -627.37474886 238.5173607 -584.44238281 220.03686523 C-549.29109703 204.80017602 -514.02418835 189.8323408 -478.76696777 174.84295654 C-453.97140749 164.30104913 -429.17669991 153.75934979 -404.45605469 143.04272461 C-375.49458169 130.48859066 -346.45262083 118.12239419 -317.3984375 105.78469849 C-274.57951642 87.61261295 -274.57951642 87.61261295 -231.86206055 69.20385742 C-223.24450633 65.46318412 -214.60692456 61.77288158 -205.95336914 58.11621094 C-204.90384567 57.6721138 -203.8543222 57.22801666 -202.772995 56.77046204 C-197.62941394 54.5940727 -192.48393799 52.42243982 -187.33447266 50.26000977 C-178.27395861 46.43840395 -169.3391804 42.5067858 -160.58110046 38.03179932 C-154.52688198 34.93946153 -148.35820666 32.17088234 -142.10180664 29.51074219 C-141.06797852 29.05570313 -140.03415039 28.60066406 -138.96899414 28.13183594 C-131.39012008 24.90103827 -123.76346714 22.76242694 -115.76348877 20.89422607 C-111.40542949 19.85700217 -107.06369356 18.75520442 -102.71920776 17.66275024 C-98.11931357 16.50741562 -93.51672912 15.36314738 -88.91358757 14.22083473 C-85.51405634 13.37684916 -82.11531634 12.52992983 -78.71826172 11.67602539 C-49.66430073 4.3775178 -49.66430073 4.3775178 -35.19622803 2.52896118 C-33.06877379 2.25651188 -30.94639309 1.95637081 -28.82299805 1.65405273 C-19.20491936 0.3416898 -9.70173994 -0.05276545 0 0 Z " fill="#FEFEFE" transform="translate(2547.101806640625,831.7392578125)"/>
</svg>
