<svg xmlns="http://www.w3.org/2000/svg" xmlns:v="https://svgstorm.com"
viewBox = "0 0 474 474"
width="474"
height="474">
<g fill="None" fill-opacity="0.0" stroke="#010101" stroke-opacity="1.00" stroke-width="0.3"><path d="
M 0.00 474.00 
L 474.00 474.00
L 474.00 0.00
L 0.00 0.00
L 0.00 474.00
M 360.00 102.00 
C 353.25 109.45 347.21 117.18 340.75 124.75 C 334.28 132.31 326.71 139.93 320.75 147.75 C 314.79 155.56 306.27 162.92 300.75 170.75 C 295.23 178.58 285.70 186.38 281.08 194.08 C 276.47 201.78 261.08 209.31 263.78 218.22 C 266.48 227.14 276.23 234.63 280.77 243.23 C 285.31 251.83 293.03 260.16 298.30 268.70 C 303.58 277.23 310.29 285.64 315.77 294.23 C 321.25 302.82 327.83 311.03 333.30 319.70 C 338.78 328.36 345.46 336.40 350.92 345.08 C 356.37 353.76 363.23 362.09 368.00 371.00
C 347.75 373.19 325.00 368.08 305.00 371.00 C 285.00 373.92 280.46 355.20 270.70 342.30 C 260.93 329.40 254.14 317.75 245.08 304.92 C 236.02 292.09 227.39 280.11 219.00 267.00
C 210.95 273.73 205.50 281.87 198.75 289.75 C 192.00 297.63 185.46 304.55 178.75 312.75 C 172.04 320.96 164.98 327.50 158.25 336.25 C 151.52 345.00 145.09 349.51 138.70 359.70 C 132.31 369.88 118.82 374.18 106.00 371.00
C 139.04 331.01 173.88 291.19 208.00 252.00
C 174.85 201.48 139.09 152.35 106.00 102.00
C 116.63 101.30 127.38 102.93 138.00 102.00 C 148.62 101.07 159.42 103.78 170.00 102.00 C 180.58 100.22 186.94 104.53 191.25 112.75 C 195.57 120.96 199.91 124.48 204.25 131.75 C 208.60 139.02 213.05 143.69 217.30 150.70 C 221.55 157.70 226.29 162.46 230.30 169.70 C 234.31 176.93 240.08 181.36 243.77 189.23 C 247.46 197.10 253.68 202.09 258.25 193.25 C 262.81 184.40 268.29 183.33 273.25 176.25 C 278.20 169.17 282.80 165.22 287.75 158.75 C 292.71 152.29 297.41 147.86 302.75 141.75 C 308.10 135.64 311.98 130.73 317.25 124.25 C 322.51 117.77 327.16 114.77 332.25 107.25 C 337.33 99.73 350.95 102.06 360.00 102.00 Z"/>
</g>
<g fill="None" fill-opacity="0.0" stroke="#F7F7F7" stroke-opacity="1.00" stroke-width="0.3"><path d="
M 360.00 102.00 
C 350.95 102.06 337.33 99.73 332.25 107.25 C 327.16 114.77 322.51 117.77 317.25 124.25 C 311.98 130.73 308.10 135.64 302.75 141.75 C 297.41 147.86 292.71 152.29 287.75 158.75 C 282.80 165.22 278.20 169.17 273.25 176.25 C 268.29 183.33 262.81 184.40 258.25 193.25 C 253.68 202.09 247.46 197.10 243.77 189.23 C 240.08 181.36 234.31 176.93 230.30 169.70 C 226.29 162.46 221.55 157.70 217.30 150.70 C 213.05 143.69 208.60 139.02 204.25 131.75 C 199.91 124.48 195.57 120.96 191.25 112.75 C 186.94 104.53 180.58 100.22 170.00 102.00 C 159.42 103.78 148.62 101.07 138.00 102.00 C 127.38 102.93 116.63 101.30 106.00 102.00
C 139.09 152.35 174.85 201.48 208.00 252.00
C 173.88 291.19 139.04 331.01 106.00 371.00
C 118.82 374.18 132.31 369.88 138.70 359.70 C 145.09 349.51 151.52 345.00 158.25 336.25 C 164.98 327.50 172.04 320.96 178.75 312.75 C 185.46 304.55 192.00 297.63 198.75 289.75 C 205.50 281.87 210.95 273.73 219.00 267.00
C 227.39 280.11 236.02 292.09 245.08 304.92 C 254.14 317.75 260.93 329.40 270.70 342.30 C 280.46 355.20 285.00 373.92 305.00 371.00 C 325.00 368.08 347.75 373.19 368.00 371.00
C 363.23 362.09 356.37 353.76 350.92 345.08 C 345.46 336.40 338.78 328.36 333.30 319.70 C 327.83 311.03 321.25 302.82 315.77 294.23 C 310.29 285.64 303.58 277.23 298.30 268.70 C 293.03 260.16 285.31 251.83 280.77 243.23 C 276.23 234.63 266.48 227.14 263.78 218.22 C 261.08 209.31 276.47 201.78 281.08 194.08 C 285.70 186.38 295.23 178.58 300.75 170.75 C 306.27 162.92 314.79 155.56 320.75 147.75 C 326.71 139.93 334.28 132.31 340.75 124.75 C 347.21 117.18 353.25 109.45 360.00 102.00
M 172.00 120.00 
C 181.95 125.03 184.94 140.23 192.77 148.23 C 200.60 156.23 205.96 168.75 213.30 177.70 C 220.65 186.64 226.74 197.81 233.77 207.23 C 240.80 216.65 247.72 226.92 254.30 236.70 C 260.89 246.47 268.26 255.35 274.75 265.25 C 281.25 275.14 288.56 284.89 295.25 294.75 C 301.94 304.61 308.99 314.39 315.77 324.23 C 322.55 334.07 329.92 343.90 336.00 354.00
C 320.48 355.43 300.28 356.43 293.25 342.75 C 286.21 329.08 278.17 322.99 271.08 310.92 C 263.99 298.85 255.93 290.55 248.75 279.25 C 241.57 267.96 233.93 258.25 226.70 247.30 C 219.46 236.35 211.49 226.56 204.25 215.75 C 197.00 204.95 189.58 194.46 182.23 183.77 C 174.88 173.08 167.14 162.91 159.75 152.25 C 152.36 141.59 145.12 130.84 138.00 120.00
C 147.21 120.42 163.21 115.56 172.00 120.00 Z"/>
</g>
<g fill="None" fill-opacity="0.0" stroke="#626262" stroke-opacity="1.00" stroke-width="0.3"><path d="
M 138.00 120.00 
C 148.50 122.52 161.77 116.64 172.00 120.00
C 163.21 115.56 147.21 120.42 138.00 120.00 Z"/>
</g>
<g fill="None" fill-opacity="0.0" stroke="#010101" stroke-opacity="1.00" stroke-width="0.3"><path d="
M 172.00 120.00 
C 161.77 116.64 148.50 122.52 138.00 120.00
C 145.12 130.84 152.36 141.59 159.75 152.25 C 167.14 162.91 174.88 173.08 182.23 183.77 C 189.58 194.46 197.00 204.95 204.25 215.75 C 211.49 226.56 219.46 236.35 226.70 247.30 C 233.93 258.25 241.57 267.96 248.75 279.25 C 255.93 290.55 263.99 298.85 271.08 310.92 C 278.17 322.99 286.21 329.08 293.25 342.75 C 300.28 356.43 320.48 355.43 336.00 354.00
C 329.92 343.90 322.55 334.07 315.77 324.23 C 308.99 314.39 301.94 304.61 295.25 294.75 C 288.56 284.89 281.25 275.14 274.75 265.25 C 268.26 255.35 260.89 246.47 254.30 236.70 C 247.72 226.92 240.80 216.65 233.77 207.23 C 226.74 197.81 220.65 186.64 213.30 177.70 C 205.96 168.75 200.60 156.23 192.77 148.23 C 184.94 140.23 181.95 125.03 172.00 120.00 Z"/>
</g>
<g fill="#010101" fill-opacity="1.00" stroke="None">
<path d="
M 0.00 474.00 
L 474.00 474.00
L 474.00 0.00
L 0.00 0.00
L 0.00 474.00
M 360.00 102.00 
C 353.25 109.45 347.21 117.18 340.75 124.75 C 334.28 132.31 326.71 139.93 320.75 147.75 C 314.79 155.56 306.27 162.92 300.75 170.75 C 295.23 178.58 285.70 186.38 281.08 194.08 C 276.47 201.78 261.08 209.31 263.78 218.22 C 266.48 227.14 276.23 234.63 280.77 243.23 C 285.31 251.83 293.03 260.16 298.30 268.70 C 303.58 277.23 310.29 285.64 315.77 294.23 C 321.25 302.82 327.83 311.03 333.30 319.70 C 338.78 328.36 345.46 336.40 350.92 345.08 C 356.37 353.76 363.23 362.09 368.00 371.00
C 347.75 373.19 325.00 368.08 305.00 371.00 C 285.00 373.92 280.46 355.20 270.70 342.30 C 260.93 329.40 254.14 317.75 245.08 304.92 C 236.02 292.09 227.39 280.11 219.00 267.00
C 210.95 273.73 205.50 281.87 198.75 289.75 C 192.00 297.63 185.46 304.55 178.75 312.75 C 172.04 320.96 164.98 327.50 158.25 336.25 C 151.52 345.00 145.09 349.51 138.70 359.70 C 132.31 369.88 118.82 374.18 106.00 371.00
C 139.04 331.01 173.88 291.19 208.00 252.00
C 174.85 201.48 139.09 152.35 106.00 102.00
C 116.63 101.30 127.38 102.93 138.00 102.00 C 148.62 101.07 159.42 103.78 170.00 102.00 C 180.58 100.22 186.94 104.53 191.25 112.75 C 195.57 120.96 199.91 124.48 204.25 131.75 C 208.60 139.02 213.05 143.69 217.30 150.70 C 221.55 157.70 226.29 162.46 230.30 169.70 C 234.31 176.93 240.08 181.36 243.77 189.23 C 247.46 197.10 253.68 202.09 258.25 193.25 C 262.81 184.40 268.29 183.33 273.25 176.25 C 278.20 169.17 282.80 165.22 287.75 158.75 C 292.71 152.29 297.41 147.86 302.75 141.75 C 308.10 135.64 311.98 130.73 317.25 124.25 C 322.51 117.77 327.16 114.77 332.25 107.25 C 337.33 99.73 350.95 102.06 360.00 102.00 Z"/>
</g>
<g fill="#F7F7F7" fill-opacity="1.00" stroke="None">
<path d="
M 360.00 102.00 
C 350.95 102.06 337.33 99.73 332.25 107.25 C 327.16 114.77 322.51 117.77 317.25 124.25 C 311.98 130.73 308.10 135.64 302.75 141.75 C 297.41 147.86 292.71 152.29 287.75 158.75 C 282.80 165.22 278.20 169.17 273.25 176.25 C 268.29 183.33 262.81 184.40 258.25 193.25 C 253.68 202.09 247.46 197.10 243.77 189.23 C 240.08 181.36 234.31 176.93 230.30 169.70 C 226.29 162.46 221.55 157.70 217.30 150.70 C 213.05 143.69 208.60 139.02 204.25 131.75 C 199.91 124.48 195.57 120.96 191.25 112.75 C 186.94 104.53 180.58 100.22 170.00 102.00 C 159.42 103.78 148.62 101.07 138.00 102.00 C 127.38 102.93 116.63 101.30 106.00 102.00
C 139.09 152.35 174.85 201.48 208.00 252.00
C 173.88 291.19 139.04 331.01 106.00 371.00
C 118.82 374.18 132.31 369.88 138.70 359.70 C 145.09 349.51 151.52 345.00 158.25 336.25 C 164.98 327.50 172.04 320.96 178.75 312.75 C 185.46 304.55 192.00 297.63 198.75 289.75 C 205.50 281.87 210.95 273.73 219.00 267.00
C 227.39 280.11 236.02 292.09 245.08 304.92 C 254.14 317.75 260.93 329.40 270.70 342.30 C 280.46 355.20 285.00 373.92 305.00 371.00 C 325.00 368.08 347.75 373.19 368.00 371.00
C 363.23 362.09 356.37 353.76 350.92 345.08 C 345.46 336.40 338.78 328.36 333.30 319.70 C 327.83 311.03 321.25 302.82 315.77 294.23 C 310.29 285.64 303.58 277.23 298.30 268.70 C 293.03 260.16 285.31 251.83 280.77 243.23 C 276.23 234.63 266.48 227.14 263.78 218.22 C 261.08 209.31 276.47 201.78 281.08 194.08 C 285.70 186.38 295.23 178.58 300.75 170.75 C 306.27 162.92 314.79 155.56 320.75 147.75 C 326.71 139.93 334.28 132.31 340.75 124.75 C 347.21 117.18 353.25 109.45 360.00 102.00
M 172.00 120.00 
C 181.95 125.03 184.94 140.23 192.77 148.23 C 200.60 156.23 205.96 168.75 213.30 177.70 C 220.65 186.64 226.74 197.81 233.77 207.23 C 240.80 216.65 247.72 226.92 254.30 236.70 C 260.89 246.47 268.26 255.35 274.75 265.25 C 281.25 275.14 288.56 284.89 295.25 294.75 C 301.94 304.61 308.99 314.39 315.77 324.23 C 322.55 334.07 329.92 343.90 336.00 354.00
C 320.48 355.43 300.28 356.43 293.25 342.75 C 286.21 329.08 278.17 322.99 271.08 310.92 C 263.99 298.85 255.93 290.55 248.75 279.25 C 241.57 267.96 233.93 258.25 226.70 247.30 C 219.46 236.35 211.49 226.56 204.25 215.75 C 197.00 204.95 189.58 194.46 182.23 183.77 C 174.88 173.08 167.14 162.91 159.75 152.25 C 152.36 141.59 145.12 130.84 138.00 120.00
C 147.21 120.42 163.21 115.56 172.00 120.00 Z"/>
</g>
<g fill="#626262" fill-opacity="1.00" stroke="None">
<path d="
M 138.00 120.00 
C 148.50 122.52 161.77 116.64 172.00 120.00
C 163.21 115.56 147.21 120.42 138.00 120.00 Z"/>
</g>
<g fill="#010101" fill-opacity="1.00" stroke="None">
<path d="
M 172.00 120.00 
C 161.77 116.64 148.50 122.52 138.00 120.00
C 145.12 130.84 152.36 141.59 159.75 152.25 C 167.14 162.91 174.88 173.08 182.23 183.77 C 189.58 194.46 197.00 204.95 204.25 215.75 C 211.49 226.56 219.46 236.35 226.70 247.30 C 233.93 258.25 241.57 267.96 248.75 279.25 C 255.93 290.55 263.99 298.85 271.08 310.92 C 278.17 322.99 286.21 329.08 293.25 342.75 C 300.28 356.43 320.48 355.43 336.00 354.00
C 329.92 343.90 322.55 334.07 315.77 324.23 C 308.99 314.39 301.94 304.61 295.25 294.75 C 288.56 284.89 281.25 275.14 274.75 265.25 C 268.26 255.35 260.89 246.47 254.30 236.70 C 247.72 226.92 240.80 216.65 233.77 207.23 C 226.74 197.81 220.65 186.64 213.30 177.70 C 205.96 168.75 200.60 156.23 192.77 148.23 C 184.94 140.23 181.95 125.03 172.00 120.00 Z"/>
</g>
</svg>